<svg xmlns="http://www.w3.org/2000/svg" x="0" y="0" viewBox="0 0 512 512"><style type="text/css">.a{fill:#C7C7C7}.b{fill:none;stroke:#F2F2F2;stroke-miterlimit:10;stroke-width:8}</style><path class="a" d="M0,0H512V512H0z"/><path class="b" d="M-9.5,502.5l512-512"/><path d="M0,512L512,0"/><path d="M9.5,521.5l512-512"/><path d="M18.9,531.1l512-512"/><path d="M28.4,540.6l512-512"/><path d="M37.9,550.1l512-512"/><path d="M47.3,559.7l512-512"/><path d="M56.8,569.2l512-512"/><path d="M66.2,578.8L578.2,66.7"/><path d="M75.7,588.3l512-512"/><path d="M85.2,597.8l512-512"/><path d="M94.6,607.4l512-512"/><path d="M104.1,616.9l512-512"/><path d="M113.6,626.4l512-512"/><path d="M123,636L635,124"/><path d="M132.5,645.5l512-512"/><path d="M142,655L654,143"/><path d="M151.4,664.6l512-512"/><path d="M160.9,674.1l512-512"/><path d="M170.4,683.6l512-512"/><path d="M179.8,693.2l512-512"/><path d="M189.3,702.7l512-512"/><path d="M198.7,712.3l512-512"/><path d="M208.2,721.8l512-512"/><path d="M217.7,731.3l512-512"/><path d="M227.1,740.9l512-512"/><path d="M236.6,750.4l512-512"/><path d="M246.1,759.9l512-512"/><path d="M255.5,769.5l512-512"/><path d="M-255.5,254.5l512-512"/><path d="M-246.1,264.1l512-512"/><path d="M-236.6,273.6l512-512"/><path d="M-227.1,283.1l512-512"/><path d="M-217.7,292.7l512-512"/><path d="M-208.2,302.2l512-512"/><path d="M-198.8,311.8l512-512"/><path d="M-189.3,321.3l512-512"/><path d="M-179.8,330.8l512-512"/><path d="M-170.4,340.4l512-512"/><path d="M-160.9,349.9l512-512"/><path d="M-151.4,359.4l512-512"/><path d="M-142,369L370-143"/><path d="M-132.5,378.5l512-512"/><path d="M-123,388L389-124"/><path d="M-113.6,397.6l512-512"/><path d="M-104.1,407.1l512-512"/><path d="M-94.6,416.6l512-512"/><path d="M-85.2,426.2l512-512"/><path d="M-75.7,435.7l512-512"/><path d="M-66.3,445.3L445.8-66.8"/><path d="M-56.8,454.8l512-512"/><path d="M-47.3,464.3l512-512"/><path d="M-37.9,473.9l512-512"/><path d="M-28.4,483.4l512-512"/><path d="M-18.9,492.9l512-512"/></svg>
